<svg width="38" height="35" viewBox="0 0 38 35" fill="none" xmlns="http://www.w3.org/2000/svg">
<path d="M24.5416 1.45825H11.875C10.8251 1.45825 9.81833 1.84237 9.07599 2.52609C8.33366 3.20982 7.91663 4.13715 7.91663 5.10408V29.8958C7.91663 30.8627 8.33366 31.79 9.07599 32.4737C9.81833 33.1575 10.8251 33.5416 11.875 33.5416H24.5416C25.5914 33.5416 26.5983 33.1575 27.3406 32.4737C28.0829 31.79 28.5 30.8627 28.5 29.8958V5.10408C28.5 4.13715 28.0829 3.20982 27.3406 2.52609C26.5983 1.84237 25.5914 1.45825 24.5416 1.45825ZM18.2083 32.0833C16.8941 32.0833 15.8333 31.1062 15.8333 29.8958C15.8333 28.6853 16.8941 27.7083 18.2083 27.7083C19.5225 27.7083 20.5833 28.6853 20.5833 29.8958C20.5833 31.1062 19.5225 32.0833 18.2083 32.0833ZM25.3333 26.2499H11.0833V5.83325H25.3333V26.2499Z" fill="black"/>
</svg>
