<svg width="63" height="63" viewBox="0 0 63 63" fill="none" xmlns="http://www.w3.org/2000/svg">
<g filter="url(#filter0_d_10_166)">
<rect x="4" width="55" height="55" rx="16" fill="#EBC971"/>
<g filter="url(#filter1_d_10_166)">
<path d="M48.345 28.5051C48.5488 25.0891 47.7092 21.6919 45.9376 18.7641C44.166 15.8363 41.5462 13.5164 38.4256 12.1119C35.305 10.7075 31.8312 10.285 28.465 10.9004C25.0987 11.5159 21.9992 13.1402 19.5774 15.558C17.1557 17.9757 15.5262 21.0726 14.9052 24.4378C14.2841 27.803 14.7009 31.2775 16.1002 34.4004C17.4994 37.5233 19.8151 40.147 22.7399 41.9234C25.6648 43.6998 29.0606 44.5451 32.4769 44.347M44.625 46.2501V35.0001M44.625 35.0001L50.25 40.6251M44.625 35.0001L39 40.6251M25.875 23.7501H25.8938M37.125 23.7501H37.1438" stroke="white" stroke-width="2" stroke-linecap="round" stroke-linejoin="round"/>
<path d="M26.8125 33.125C28.0462 34.325 29.7375 35 31.5 35C33.2625 35 34.9538 34.325 36.1875 33.125" stroke="white" stroke-width="2" stroke-linecap="round" stroke-linejoin="round"/>
</g>
</g>
<defs>
<filter id="filter0_d_10_166" x="0" y="0" width="63" height="63" filterUnits="userSpaceOnUse" color-interpolation-filters="sRGB">
<feFlood flood-opacity="0" result="BackgroundImageFix"/>
<feColorMatrix in="SourceAlpha" type="matrix" values="0 0 0 0 0 0 0 0 0 0 0 0 0 0 0 0 0 0 127 0" result="hardAlpha"/>
<feOffset dy="4"/>
<feGaussianBlur stdDeviation="2"/>
<feComposite in2="hardAlpha" operator="out"/>
<feColorMatrix type="matrix" values="0 0 0 0 0 0 0 0 0 0 0 0 0 0 0 0 0 0 0.25 0"/>
<feBlend mode="normal" in2="BackgroundImageFix" result="effect1_dropShadow_10_166"/>
<feBlend mode="normal" in="SourceGraphic" in2="effect1_dropShadow_10_166" result="shape"/>
</filter>
<filter id="filter1_d_10_166" x="5" y="5" width="53" height="53" filterUnits="userSpaceOnUse" color-interpolation-filters="sRGB">
<feFlood flood-opacity="0" result="BackgroundImageFix"/>
<feColorMatrix in="SourceAlpha" type="matrix" values="0 0 0 0 0 0 0 0 0 0 0 0 0 0 0 0 0 0 127 0" result="hardAlpha"/>
<feOffset dy="4"/>
<feGaussianBlur stdDeviation="2"/>
<feComposite in2="hardAlpha" operator="out"/>
<feColorMatrix type="matrix" values="0 0 0 0 0 0 0 0 0 0 0 0 0 0 0 0 0 0 0.25 0"/>
<feBlend mode="normal" in2="BackgroundImageFix" result="effect1_dropShadow_10_166"/>
<feBlend mode="normal" in="SourceGraphic" in2="effect1_dropShadow_10_166" result="shape"/>
</filter>
</defs>
</svg>
