<svg width="32" height="32" viewBox="0 0 32 32" fill="none" xmlns="http://www.w3.org/2000/svg">
<path d="M26.8 8.6H21.4139C21.5047 8.13887 21.5503 7.66998 21.5499 7.2C21.5499 4.20537 19.3579 2 15.7999 2C12.9678 2 12.2373 5.03356 11.0682 6.924C10.5848 7.69981 10.0061 8.38131 9.45256 9.00231L9.44438 9.01144L9.43631 9.02069C8.47888 10.1129 7.98525 10.5 7.55 10.5H7.38256C7.02338 10.1905 6.53656 10 6.00006 10H2C0.895437 10 0 10.8059 0 11.8V26.2C0 27.1941 0.895437 28 2 28H6C6.5365 28 7.02331 27.8095 7.3825 27.5H7.54994C9.34294 27.5 11.746 30 15.4999 30H16.8311C20.74 30 23.0061 27.5839 23.0774 24.3034C23.8575 23.1901 24.2331 21.7544 24.0764 20.379C24.299 19.942 24.4656 19.4787 24.572 19H26.8C29.6397 19 32 16.651 32 13.8C32 10.9813 29.6187 8.6 26.8 8.6ZM26.8 16H21.1109C21.9132 16.9168 22.0118 18.6766 20.8015 19.8156C21.5032 21.0435 20.9069 22.6671 19.9937 23.1672C20.4014 25.6127 19.3639 27 16.8312 27H15.5C12.6568 27 10.6744 24.7554 8 24.5203V13.4732C9.57744 13.2879 10.6854 12.1468 11.6922 10.9984C12.3969 10.2078 13.05 9.41719 13.6171 8.50625C14.5222 7.0445 15.2504 5 15.8 5C17.2609 5 18.55 5.55 18.55 7.2C18.55 9.4 16.9 10.5172 16.9 11.6H26.8C27.9516 11.6 29 12.6313 29 13.8C29 14.9859 27.9859 16 26.8 16ZM5.5 24C5.5 24.8284 4.82844 25.5 4 25.5C3.17156 25.5 2.5 24.8284 2.5 24C2.5 23.1716 3.17156 22.5 4 22.5C4.82844 22.5 5.5 23.1716 5.5 24Z" fill="#EBC971"/>
</svg>
