<svg width="18" height="18" viewBox="0 0 18 18" fill="none" xmlns="http://www.w3.org/2000/svg">
<g clip-path="url(#clip0_8_548)">
<path d="M9.00011 0.359985C4.22831 0.359985 0.360107 4.22819 0.360107 8.99999C0.360107 13.7718 4.22831 17.64 9.00011 17.64C13.7719 17.64 17.6401 13.7718 17.6401 8.99999C17.6401 4.22819 13.7719 0.359985 9.00011 0.359985ZM6.88511 12.5811H5.13551V6.95069H6.88511V12.5811ZM5.99951 6.25949C5.44691 6.25949 5.08961 5.86798 5.08961 5.38379C5.08961 4.88969 5.45771 4.50989 6.02201 4.50989C6.58631 4.50989 6.93191 4.88969 6.94271 5.38379C6.94271 5.86798 6.58631 6.25949 5.99951 6.25949ZM13.2751 12.5811H11.5255V9.46079C11.5255 8.73449 11.2717 8.24129 10.639 8.24129C10.1557 8.24129 9.86861 8.57519 9.74171 8.89649C9.69491 9.01079 9.68321 9.17279 9.68321 9.33389V12.5802H7.93271V8.74619C7.93271 8.04329 7.91021 7.45559 7.88681 6.94979H9.40691L9.48701 7.73188H9.52211C9.75251 7.36469 10.3168 6.82289 11.2609 6.82289C12.412 6.82289 13.2751 7.59419 13.2751 9.25199V12.5811Z" fill="white"/>
</g>
<defs>
<clipPath id="clip0_8_548">
<rect width="18" height="18" fill="white"/>
</clipPath>
</defs>
</svg>
