<svg width="21" height="20" viewBox="0 0 21 20" fill="none" xmlns="http://www.w3.org/2000/svg">
<path d="M19.3826 14.6388L17.3397 12.6003C16.9003 12.1933 16.346 11.9237 15.7481 11.826C15.1501 11.7283 14.5359 11.8071 13.9843 12.0522L13.0961 11.1868C14.1427 9.82425 14.6207 8.12595 14.4338 6.43379C14.247 4.74164 13.4091 3.18128 12.0889 2.06683C10.7687 0.952386 9.06415 0.3666 7.31846 0.427395C5.57278 0.488191 3.91554 1.19105 2.68037 2.3945C1.44519 3.59794 0.723794 5.2126 0.661395 6.91343C0.598997 8.61427 1.20023 10.275 2.34406 11.5613C3.4879 12.8476 5.0894 13.6639 6.82617 13.846C8.56295 14.0281 10.306 13.5624 11.7045 12.5426L12.5829 13.3984C12.3017 13.9365 12.2009 14.547 12.2948 15.1439C12.3886 15.7407 12.6723 16.2939 13.1059 16.7253L15.1981 18.7638C15.7533 19.304 16.5058 19.6074 17.2904 19.6074C18.0749 19.6074 18.8274 19.304 19.3826 18.7638C19.6646 18.4951 19.8886 18.1743 20.0416 17.8201C20.1946 17.4659 20.2734 17.0855 20.2734 16.7013C20.2734 16.317 20.1946 15.9366 20.0416 15.5824C19.8886 15.2282 19.6646 14.9074 19.3826 14.6388ZM11.0137 10.5618C10.3231 11.233 9.44387 11.6897 8.48702 11.8742C7.53017 12.0587 6.53865 11.9628 5.63772 11.5986C4.73679 11.2343 3.96687 10.6181 3.42522 9.82773C2.88356 9.03738 2.59448 8.10834 2.59448 7.15799C2.59448 6.20763 2.88356 5.2786 3.42522 4.48824C3.96687 3.69788 4.73679 3.08166 5.63772 2.71742C6.53865 2.35318 7.53017 2.25727 8.48702 2.44179C9.44387 2.62631 10.3231 3.08299 11.0137 3.75414C11.4732 4.20073 11.8378 4.73127 12.0866 5.31536C12.3354 5.89944 12.4634 6.52561 12.4634 7.15799C12.4634 7.79037 12.3354 8.41653 12.0866 9.00062C11.8378 9.58471 11.4732 10.1152 11.0137 10.5618ZM17.9911 17.3599C17.8993 17.45 17.7902 17.5216 17.6699 17.5704C17.5496 17.6192 17.4206 17.6443 17.2904 17.6443C17.1601 17.6443 17.0311 17.6192 16.9108 17.5704C16.7906 17.5216 16.6814 17.45 16.5897 17.3599L14.4975 15.3215C14.405 15.2321 14.3315 15.1257 14.2814 15.0085C14.2313 14.8914 14.2055 14.7657 14.2055 14.6388C14.2055 14.5118 14.2313 14.3861 14.2814 14.269C14.3315 14.1518 14.405 14.0455 14.4975 13.9561C14.5892 13.8659 14.6983 13.7944 14.8186 13.7456C14.9389 13.6968 15.0679 13.6716 15.1981 13.6716C15.3284 13.6716 15.4574 13.6968 15.5777 13.7456C15.6979 13.7944 15.8071 13.8659 15.8988 13.9561L17.9911 15.9945C18.0836 16.0839 18.157 16.1903 18.2071 16.3074C18.2572 16.4246 18.283 16.5503 18.283 16.6772C18.283 16.8042 18.2572 16.9298 18.2071 17.047C18.157 17.1642 18.0836 17.2705 17.9911 17.3599Z" fill="#878585"/>
</svg>
