<svg width="32" height="30" viewBox="0 0 32 30" fill="none" xmlns="http://www.w3.org/2000/svg">
<path d="M5.33329 25C4.59996 25 3.97196 24.755 3.44929 24.265C2.92663 23.775 2.66574 23.1867 2.66663 22.5V7.5C2.66663 6.8125 2.92796 6.22375 3.45063 5.73375C3.97329 5.24375 4.60085 4.99917 5.33329 5H26.6666C27.4 5 28.028 5.245 28.5506 5.735C29.0733 6.225 29.3342 6.81334 29.3333 7.5V22.5C29.3333 23.1875 29.072 23.7763 28.5493 24.2663C28.0266 24.7563 27.3991 25.0008 26.6666 25H5.33329ZM16 16.25L26.6666 10V7.5L16 13.75L5.33329 7.5V10L16 16.25Z" fill="black"/>
</svg>
