<svg width="29" height="21" viewBox="0 0 29 21" fill="none" xmlns="http://www.w3.org/2000/svg">
<path d="M28.3344 4.02055C28.1851 3.83796 27.997 3.69091 27.7839 3.59006C27.5707 3.48921 27.3377 3.43709 27.1019 3.4375H6.89113L6.48406 1.12789C6.44066 0.881874 6.31195 0.659019 6.12056 0.498471C5.92916 0.337922 5.68732 0.249948 5.4375 0.25H1.1875C0.905707 0.25 0.635456 0.361942 0.436199 0.561199C0.236942 0.760457 0.125 1.03071 0.125 1.3125C0.125 1.59429 0.236942 1.86454 0.436199 2.0638C0.635456 2.26306 0.905707 2.375 1.1875 2.375H4.54633L7.57844 19.5596C7.62184 19.8056 7.75055 20.0285 7.94194 20.189C8.13334 20.3496 8.37518 20.4376 8.625 20.4375H25.625C25.9068 20.4375 26.177 20.3256 26.3763 20.1263C26.5756 19.927 26.6875 19.6568 26.6875 19.375C26.6875 19.0932 26.5756 18.823 26.3763 18.6237C26.177 18.4244 25.9068 18.3125 25.625 18.3125H9.51617L9.14164 16.1875H25.1894C25.5578 16.187 25.9148 16.0593 26.1999 15.8258C26.485 15.5924 26.6807 15.2677 26.7539 14.9065L28.6664 5.34402C28.7125 5.1126 28.7066 4.87383 28.6492 4.64495C28.5918 4.41608 28.4842 4.20281 28.3344 4.02055Z" fill="#E2A954"/>
</svg>
