<svg width="40" height="40" viewBox="0 0 40 40" fill="none" xmlns="http://www.w3.org/2000/svg">
<g clip-path="url(#clip0_11_228)">
<path fill-rule="evenodd" clip-rule="evenodd" d="M19.1666 5C20.805 5.00013 22.3983 5.53651 23.7032 6.52723C25.0081 7.51796 25.9529 8.90856 26.3933 10.4867L26.4799 10.8283L29.5966 10.05C29.8244 9.9933 30.0616 9.98536 30.2927 10.0267C30.5238 10.0681 30.7435 10.1577 30.9375 10.2899C31.1315 10.4221 31.2954 10.5938 31.4185 10.7937C31.5415 10.9936 31.621 11.2172 31.6516 11.45L31.6666 11.6667V14.6833C32.6062 15.5842 33.3762 16.6467 33.9399 17.82L34.1699 18.3333H34.9999C35.4081 18.3334 35.8021 18.4833 36.1072 18.7545C36.4123 19.0258 36.6072 19.3996 36.6549 19.805L36.6666 20V25C36.6666 25.2743 36.599 25.5444 36.4696 25.7863C36.3402 26.0282 36.1531 26.2344 35.9249 26.3867L35.7449 26.49L33.7983 27.465C33.0013 29.0068 31.8469 30.3355 30.4316 31.34L29.9999 31.63V33.3333C29.9999 33.7416 29.85 34.1356 29.5787 34.4406C29.3075 34.7457 28.9337 34.9406 28.5283 34.9883L28.3333 35H23.3333C22.925 34.9999 22.531 34.8501 22.226 34.5788C21.9209 34.3075 21.726 33.9338 21.6783 33.5283L21.6666 33.3333H19.9999C19.9999 33.7416 19.85 34.1356 19.5787 34.4406C19.3075 34.7457 18.9337 34.9406 18.5283 34.9883L18.3333 35H13.3333C12.925 34.9999 12.531 34.8501 12.226 34.5788C11.9209 34.3075 11.726 33.9338 11.6783 33.5283L11.6666 33.3333V31.63C10.4626 30.8602 9.42251 29.8601 8.6062 28.6872C7.7899 27.5142 7.21343 26.1915 6.90992 24.795C5.92713 24.5025 5.05794 23.9151 4.42001 23.1123C3.78207 22.3095 3.40619 21.3301 3.34325 20.3067L3.33325 20V19.1667C3.33372 18.7419 3.49638 18.3333 3.788 18.0244C4.07961 17.7155 4.47817 17.5296 4.90224 17.5047C5.32631 17.4798 5.74388 17.6178 6.06964 17.8904C6.39539 18.1631 6.60475 18.5498 6.65492 18.9717L6.66659 19.1667V20C6.66659 20.2467 6.71992 20.4817 6.81659 20.6917C7.07098 19.1912 7.63847 17.7611 8.48213 16.4944C9.32579 15.2278 10.4267 14.153 11.7133 13.34C11.595 12.2908 11.6996 11.2285 12.0202 10.2225C12.3409 9.21651 12.8703 8.28957 13.5738 7.50231C14.2774 6.71504 15.1393 6.0852 16.103 5.65399C17.0668 5.22278 18.1107 4.99993 19.1666 5ZM26.6666 18.3333C26.2246 18.3333 25.8006 18.5089 25.4881 18.8215C25.1755 19.134 24.9999 19.558 24.9999 20C24.9999 20.442 25.1755 20.8659 25.4881 21.1785C25.8006 21.4911 26.2246 21.6667 26.6666 21.6667C27.1086 21.6667 27.5325 21.4911 27.8451 21.1785C28.1577 20.8659 28.3333 20.442 28.3333 20C28.3333 19.558 28.1577 19.134 27.8451 18.8215C27.5325 18.5089 27.1086 18.3333 26.6666 18.3333ZM19.1666 8.33333C18.1571 8.33333 17.1819 8.69983 16.4223 9.36473C15.6626 10.0296 15.1702 10.9477 15.0366 11.9483C15.8443 11.7608 16.6708 11.6663 17.4999 11.6667H23.1283L23.2449 11.6383C23.0473 10.7033 22.5342 9.86456 21.7917 9.26284C21.0491 8.66111 20.1223 8.33293 19.1666 8.33333Z" fill="#E2A954"/>
</g>
<defs>
<clipPath id="clip0_11_228">
<rect width="40" height="40" fill="white"/>
</clipPath>
</defs>
</svg>
