<svg width="40" height="40" viewBox="0 0 40 40" fill="none" xmlns="http://www.w3.org/2000/svg">
<mask id="mask0_6_247" style="mask-type:luminance" maskUnits="userSpaceOnUse" x="3" y="2" width="34" height="36">
<path d="M29.9258 34.62L34.4008 18.7866C34.4709 18.5387 34.4826 18.278 34.4349 18.0248C34.3872 17.7717 34.2815 17.533 34.1261 17.3276C33.9706 17.1222 33.7697 16.9556 33.539 16.8409C33.3084 16.7262 33.0543 16.6666 32.7967 16.6666H23.2292C23.092 16.6666 22.9566 16.6357 22.8331 16.5761C22.7096 16.5165 22.6011 16.4298 22.5157 16.3225C22.4303 16.2152 22.3703 16.09 22.34 15.9562C22.3097 15.8225 22.31 15.6836 22.3408 15.55L22.7575 13.7466C23.1392 12.0925 23.2617 10.3883 23.1208 8.69663L23.0442 7.77746C22.962 6.79137 22.533 5.86631 21.8333 5.16663C21.1933 4.52647 20.3252 4.16676 19.42 4.16663H19.22C18.6725 4.16663 18.1683 4.46329 17.9033 4.94163L15.6875 8.92913C14.6942 10.7175 13.2134 12.187 11.4175 13.1666L5.86833 16.1916C5.60525 16.3352 5.38574 16.547 5.23293 16.8048C5.08011 17.0627 4.99965 17.3569 5 17.6566V34.1666C5 34.6087 5.1756 35.0326 5.48816 35.3451C5.80072 35.6577 6.22464 35.8333 6.66667 35.8333H28.3225C28.6854 35.8332 29.0384 35.7146 29.3277 35.4956C29.6171 35.2766 29.8271 34.9692 29.9258 34.62Z" fill="white" stroke="white" stroke-width="4" stroke-linecap="round" stroke-linejoin="round"/>
</mask>
<g mask="url(#mask0_6_247)">
<path d="M0 0H40V40H0V0Z" fill="#E2A954"/>
</g>
</svg>
