<svg width="12" height="14" viewBox="0 0 12 14" fill="none" xmlns="http://www.w3.org/2000/svg">
<path d="M8.55423 7.06995C9.53876 7.5353 10.3782 8.25962 10.9828 9.16537C11.5873 10.0711 11.9342 11.1242 11.9862 12.2119C11.9931 12.3116 11.98 12.4116 11.9477 12.5061C11.9154 12.6006 11.8645 12.6877 11.798 12.7623C11.7316 12.8369 11.6509 12.8975 11.5608 12.9405C11.4706 12.9835 11.3728 13.008 11.273 13.0127C11.1732 13.0173 11.0735 13.002 10.9798 12.9676C10.886 12.9332 10.8 12.8804 10.7269 12.8124C10.6538 12.7443 10.595 12.6623 10.5541 12.5712C10.5131 12.4802 10.4907 12.3818 10.4882 12.2819C10.4337 11.1265 9.93633 10.0364 9.09932 9.23792C8.26232 8.43948 7.14999 7.99402 5.99323 7.99402C4.83647 7.99402 3.72414 8.43948 2.88713 9.23792C2.05013 10.0364 1.55274 11.1265 1.49823 12.2819C1.48476 12.4775 1.39524 12.6601 1.24885 12.7905C1.10245 12.9209 0.910824 12.9887 0.714992 12.9796C0.51916 12.9704 0.334695 12.885 0.2011 12.7415C0.0675055 12.598 -0.00459907 12.4079 0.000227598 12.2119C0.0520885 11.1243 0.398759 10.0712 1.00313 9.16547C1.6075 8.2597 2.44681 7.53535 3.43123 7.06995C2.80024 6.54364 2.34669 5.83573 2.13228 5.04252C1.91787 4.24932 1.953 3.40931 2.23289 2.63678C2.51279 1.86425 3.02386 1.19668 3.69659 0.724896C4.36932 0.253108 5.17105 0 5.99273 0C6.8144 0 7.61613 0.253108 8.28886 0.724896C8.96159 1.19668 9.47267 1.86425 9.75256 2.63678C10.0325 3.40931 10.0676 4.24932 9.85318 5.04252C9.63876 5.83573 9.18522 6.54364 8.55423 7.06995ZM8.49323 3.99695C8.49323 3.33391 8.22984 2.69802 7.76099 2.22918C7.29215 1.76034 6.65627 1.49695 5.99323 1.49695C5.33019 1.49695 4.6943 1.76034 4.22546 2.22918C3.75662 2.69802 3.49323 3.33391 3.49323 3.99695C3.49323 4.65999 3.75662 5.29587 4.22546 5.76471C4.6943 6.23356 5.33019 6.49695 5.99323 6.49695C6.65627 6.49695 7.29215 6.23356 7.76099 5.76471C8.22984 5.29587 8.49323 4.65999 8.49323 3.99695Z" fill="black"/>
</svg>
