<svg width="439" height="508" viewBox="0 0 439 508" fill="none" xmlns="http://www.w3.org/2000/svg">
<path opacity="0.3" d="M325.951 58.5069C325.951 27.8734 350.742 3.04004 381.322 3.04004C411.903 3.04004 436.693 27.8734 436.693 58.5069V84.7303C436.693 115.364 411.903 140.197 381.322 140.197C350.742 140.197 325.951 115.364 325.951 84.7304V58.5069Z" fill="#E2A954"/>
<path opacity="0.3" d="M1.96594 59.6791C1.96594 29.0456 26.7563 4.21228 57.3368 4.21228C87.9172 4.21228 112.708 29.0456 112.708 59.6791V85.9026C112.708 116.536 87.9172 141.369 57.3368 141.369C26.7563 141.369 1.96594 116.536 1.96594 85.9026V59.6791Z" fill="#E2A954"/>
<path opacity="0.3" fill-rule="evenodd" clip-rule="evenodd" d="M60.5517 223.672C87.7231 223.672 109.75 245.737 109.75 272.955V293.802C109.75 355.293 159.512 405.141 220.896 405.141C282.281 405.141 332.043 355.293 332.043 293.802V272.955C332.043 245.737 354.07 223.672 381.241 223.672C408.413 223.672 430.439 245.737 430.439 272.955V293.802C430.439 409.73 336.624 503.708 220.896 503.708C105.169 503.708 11.3534 409.73 11.3534 293.802V272.955C11.3534 245.737 33.3802 223.672 60.5517 223.672Z" fill="#EBC971"/>
</svg>
