<svg width="58" height="67" viewBox="0 0 58 67" fill="none" xmlns="http://www.w3.org/2000/svg">
<path d="M43.0642 7.71651C43.0642 3.67627 46.3395 0.401001 50.3797 0.401001C54.42 0.401001 57.6952 3.67626 57.6952 7.71651V11.1751C57.6952 15.2154 54.42 18.4906 50.3797 18.4906C46.3395 18.4906 43.0642 15.2154 43.0642 11.1751V7.71651Z" fill="#E2A954"/>
<path d="M0.259766 7.87105C0.259766 3.83081 3.53503 0.555542 7.57527 0.555542C11.6155 0.555542 14.8908 3.8308 14.8908 7.87105V11.3297C14.8908 15.3699 11.6155 18.6452 7.57527 18.6452C3.53503 18.6452 0.259766 15.3699 0.259766 11.3297V7.87105Z" fill="#E2A954"/>
<path fill-rule="evenodd" clip-rule="evenodd" d="M8 29.5C11.5899 29.5 14.5 32.4101 14.5 36V38.7495C14.5 46.8595 21.0745 53.434 29.1845 53.434C37.2945 53.434 43.869 46.8595 43.869 38.7495V36C43.869 32.4101 46.7791 29.5 50.369 29.5C53.9588 29.5 56.869 32.4101 56.869 36V38.7495C56.869 54.0392 44.4742 66.434 29.1845 66.434C13.8948 66.434 1.5 54.0392 1.5 38.7495V36C1.5 32.4101 4.41015 29.5 8 29.5Z" fill="#EBC971"/>
</svg>
