<svg width="32" height="20" viewBox="0 0 32 20" fill="none" xmlns="http://www.w3.org/2000/svg">
<path d="M7.02023 7.27508C10.8824 7.27508 14.012 10.123 14.012 13.6375C14.012 17.1521 10.8824 20 7.02023 20C3.15804 20 0.0284507 17.1521 0.0284507 13.6375L0 12.7314C0 5.70227 6.26628 0 13.9907 0V3.63754C11.3234 3.63754 8.81262 4.58252 6.92065 6.29774C6.5579 6.62783 6.22361 6.97735 5.92487 7.34628C6.28051 7.2945 6.64325 7.26861 7.02023 7.27508ZM25.0082 7.27508C28.8704 7.27508 32 10.123 32 13.6375C32 17.1521 28.8704 20 25.0082 20C21.146 20 18.0164 17.1521 18.0164 13.6375L17.988 12.7314C17.988 5.70227 24.2543 0 31.9787 0V3.63754C29.3114 3.63754 26.8006 4.58252 24.9086 6.29774C24.5459 6.62783 24.2116 6.97735 23.9129 7.34628C24.2685 7.2945 24.6313 7.26861 25.0082 7.27508Z" fill="#EBC971"/>
</svg>
