<svg width="32" height="20" viewBox="0 0 32 20" fill="none" xmlns="http://www.w3.org/2000/svg">
<path d="M24.9798 12.7249C21.1176 12.7249 17.988 9.87702 17.988 6.36246C17.988 2.84789 21.1176 -9.53674e-07 24.9798 -9.53674e-07C28.842 -9.53674e-07 31.9715 2.84789 31.9715 6.36246L32 7.26861C32 14.2977 25.7337 20 18.0093 20V16.3625C20.6766 16.3625 23.1874 15.4175 25.0794 13.7023C25.4421 13.3722 25.7764 13.0227 26.0751 12.6537C25.7195 12.7055 25.3567 12.7314 24.9798 12.7249ZM6.99178 12.7249C3.12958 12.7249 1.14416e-06 9.87702 1.14416e-06 6.36246C1.14416e-06 2.84789 3.12958 -9.53674e-07 6.99178 -9.53674e-07C10.854 -9.53674e-07 13.9836 2.84789 13.9836 6.36246L14.012 7.26861C14.012 14.2977 7.74572 20 0.0213384 20V16.3625C2.6886 16.3625 5.19938 15.4175 7.09136 13.7023C7.4541 13.3722 7.7884 13.0227 8.08713 12.6537C7.7315 12.7055 7.36875 12.7314 6.99178 12.7249Z" fill="#EBC971"/>
</svg>
